<?xml version="1.0" standalone="no"?>
<!DOCTYPE svg PUBLIC "-//W3C//DTD SVG 20010904//EN"
 "http://www.w3.org/TR/2001/REC-SVG-20010904/DTD/svg10.dtd">
<svg version="1.0" xmlns="http://www.w3.org/2000/svg"
 width="900.000000pt" height="900.000000pt" viewBox="0 0 900.000000 900.000000"
 preserveAspectRatio="xMidYMid meet">

<g transform="translate(0.000000,900.000000) scale(0.100000,-0.100000)"
fill="#000000" stroke="none">
<path d="M1903 7296 c-88 -28 -172 -114 -199 -203 -12 -39 -14 -444 -14 -2593
0 -2831 -6 -2603 68 -2697 22 -27 62 -61 93 -78 l54 -30 1393 -3 1392 -2 0
1088 0 1088 -362 0 -363 0 -3 422 -2 422 364 0 364 0 5 408 c5 442 11 496 71
675 112 333 370 559 730 638 154 35 607 36 894 2 l52 -6 0 -378 0 -377 -292
-4 c-271 -4 -298 -6 -361 -27 -89 -29 -154 -91 -188 -176 -23 -58 -24 -69 -27
-407 l-3 -348 422 0 421 0 -5 -32 c-3 -18 -20 -143 -37 -278 -48 -374 -68
-522 -74 -528 -3 -3 -168 -5 -366 -5 l-360 0 0 -1089 0 -1088 763 2 762 3 47
24 c57 29 109 81 140 141 l23 45 0 2595 0 2595 -30 54 c-17 31 -51 71 -78 93
-94 74 134 68 -2701 67 -2079 0 -2559 -3 -2593 -13z"/>
</g>
</svg>
